<mxfile host="app.diagrams.net" agent="Mozilla/5.0 (Windows NT 10.0; Win64; x64) AppleWebKit/537.36 (KHTML, like Gecko) Chrome/127.0.0.0 Safari/537.36 OPR/113.0.0.0" version="24.7.17">
  <diagram name="PÃ¡gina-1" id="RZ2acFl3vqa8ov1L6pnC">
    <mxGraphModel dx="841" dy="1647" grid="1" gridSize="10" guides="1" tooltips="1" connect="1" arrows="1" fold="1" page="1" pageScale="1" pageWidth="827" pageHeight="1169" math="0" shadow="0">
      <root>
        <mxCell id="0" />
        <mxCell id="1" parent="0" />
        <mxCell id="1Kr1dXOTfn8WfkA8P_un-16" style="edgeStyle=orthogonalEdgeStyle;rounded=0;orthogonalLoop=1;jettySize=auto;html=1;entryX=0;entryY=0.5;entryDx=0;entryDy=0;curved=1;endArrow=none;endFill=0;" edge="1" parent="1" source="1Kr1dXOTfn8WfkA8P_un-1" target="1Kr1dXOTfn8WfkA8P_un-11">
          <mxGeometry relative="1" as="geometry" />
        </mxCell>
        <mxCell id="1Kr1dXOTfn8WfkA8P_un-17" style="edgeStyle=orthogonalEdgeStyle;rounded=0;orthogonalLoop=1;jettySize=auto;html=1;entryX=0;entryY=0.5;entryDx=0;entryDy=0;curved=1;endArrow=none;endFill=0;" edge="1" parent="1" source="1Kr1dXOTfn8WfkA8P_un-1" target="1Kr1dXOTfn8WfkA8P_un-13">
          <mxGeometry relative="1" as="geometry" />
        </mxCell>
        <mxCell id="1Kr1dXOTfn8WfkA8P_un-18" style="edgeStyle=orthogonalEdgeStyle;rounded=0;orthogonalLoop=1;jettySize=auto;html=1;entryX=0;entryY=0.5;entryDx=0;entryDy=0;curved=1;endArrow=none;endFill=0;" edge="1" parent="1" source="1Kr1dXOTfn8WfkA8P_un-1" target="1Kr1dXOTfn8WfkA8P_un-14">
          <mxGeometry relative="1" as="geometry" />
        </mxCell>
        <mxCell id="1Kr1dXOTfn8WfkA8P_un-19" style="edgeStyle=orthogonalEdgeStyle;rounded=0;orthogonalLoop=1;jettySize=auto;html=1;entryX=0;entryY=0.5;entryDx=0;entryDy=0;curved=1;endArrow=none;endFill=0;" edge="1" parent="1" source="1Kr1dXOTfn8WfkA8P_un-1" target="1Kr1dXOTfn8WfkA8P_un-7">
          <mxGeometry relative="1" as="geometry" />
        </mxCell>
        <mxCell id="1Kr1dXOTfn8WfkA8P_un-20" style="edgeStyle=orthogonalEdgeStyle;rounded=0;orthogonalLoop=1;jettySize=auto;html=1;entryX=0;entryY=0.5;entryDx=0;entryDy=0;curved=1;endArrow=none;endFill=0;" edge="1" parent="1" source="1Kr1dXOTfn8WfkA8P_un-1" target="1Kr1dXOTfn8WfkA8P_un-10">
          <mxGeometry relative="1" as="geometry" />
        </mxCell>
        <mxCell id="1Kr1dXOTfn8WfkA8P_un-21" style="edgeStyle=orthogonalEdgeStyle;rounded=0;orthogonalLoop=1;jettySize=auto;html=1;entryX=0;entryY=0.5;entryDx=0;entryDy=0;curved=1;endArrow=none;endFill=0;" edge="1" parent="1" source="1Kr1dXOTfn8WfkA8P_un-1" target="1Kr1dXOTfn8WfkA8P_un-12">
          <mxGeometry relative="1" as="geometry" />
        </mxCell>
        <mxCell id="1Kr1dXOTfn8WfkA8P_un-22" style="edgeStyle=orthogonalEdgeStyle;rounded=0;orthogonalLoop=1;jettySize=auto;html=1;entryX=0;entryY=0.5;entryDx=0;entryDy=0;curved=1;endArrow=none;endFill=0;" edge="1" parent="1" source="1Kr1dXOTfn8WfkA8P_un-1" target="1Kr1dXOTfn8WfkA8P_un-15">
          <mxGeometry relative="1" as="geometry" />
        </mxCell>
        <mxCell id="1Kr1dXOTfn8WfkA8P_un-1" value="Professor" style="shape=umlActor;verticalLabelPosition=bottom;verticalAlign=top;html=1;outlineConnect=0;" vertex="1" parent="1">
          <mxGeometry x="70" y="200" width="30" height="60" as="geometry" />
        </mxCell>
        <mxCell id="1Kr1dXOTfn8WfkA8P_un-6" value="Sistema" style="shape=umlFrame;whiteSpace=wrap;html=1;pointerEvents=0;" vertex="1" parent="1">
          <mxGeometry x="180" y="-150" width="600" height="790" as="geometry" />
        </mxCell>
        <mxCell id="1Kr1dXOTfn8WfkA8P_un-7" value="Autenticar-se no sistema" style="ellipse;whiteSpace=wrap;html=1;" vertex="1" parent="1">
          <mxGeometry x="630" y="205" width="120" height="80" as="geometry" />
        </mxCell>
        <mxCell id="1Kr1dXOTfn8WfkA8P_un-24" style="edgeStyle=orthogonalEdgeStyle;rounded=0;orthogonalLoop=1;jettySize=auto;html=1;entryX=0.5;entryY=1;entryDx=0;entryDy=0;curved=1;dashed=1;dashPattern=8 8;" edge="1" parent="1" source="1Kr1dXOTfn8WfkA8P_un-10" target="1Kr1dXOTfn8WfkA8P_un-7">
          <mxGeometry relative="1" as="geometry" />
        </mxCell>
        <mxCell id="1Kr1dXOTfn8WfkA8P_un-33" value="&amp;lt;Include&amp;gt;" style="edgeLabel;html=1;align=center;verticalAlign=middle;resizable=0;points=[];" vertex="1" connectable="0" parent="1Kr1dXOTfn8WfkA8P_un-24">
          <mxGeometry x="-0.2318" y="7" relative="1" as="geometry">
            <mxPoint as="offset" />
          </mxGeometry>
        </mxCell>
        <mxCell id="1Kr1dXOTfn8WfkA8P_un-10" value="Sair do sistema" style="ellipse;whiteSpace=wrap;html=1;" vertex="1" parent="1">
          <mxGeometry x="354" y="285" width="120" height="80" as="geometry" />
        </mxCell>
        <mxCell id="1Kr1dXOTfn8WfkA8P_un-27" style="edgeStyle=orthogonalEdgeStyle;rounded=0;orthogonalLoop=1;jettySize=auto;html=1;entryX=0.5;entryY=0;entryDx=0;entryDy=0;curved=1;dashed=1;dashPattern=8 8;" edge="1" parent="1" source="1Kr1dXOTfn8WfkA8P_un-11" target="1Kr1dXOTfn8WfkA8P_un-7">
          <mxGeometry relative="1" as="geometry" />
        </mxCell>
        <mxCell id="1Kr1dXOTfn8WfkA8P_un-30" value="&amp;lt;Include&amp;gt;" style="edgeLabel;html=1;align=center;verticalAlign=middle;resizable=0;points=[];" vertex="1" connectable="0" parent="1Kr1dXOTfn8WfkA8P_un-27">
          <mxGeometry x="0.1527" y="-48" relative="1" as="geometry">
            <mxPoint as="offset" />
          </mxGeometry>
        </mxCell>
        <mxCell id="1Kr1dXOTfn8WfkA8P_un-11" value="Registrar atividade" style="ellipse;whiteSpace=wrap;html=1;" vertex="1" parent="1">
          <mxGeometry x="355" y="-110" width="120" height="80" as="geometry" />
        </mxCell>
        <mxCell id="1Kr1dXOTfn8WfkA8P_un-12" value="Excluir turmas" style="ellipse;whiteSpace=wrap;html=1;" vertex="1" parent="1">
          <mxGeometry x="355" y="400" width="120" height="80" as="geometry" />
        </mxCell>
        <mxCell id="1Kr1dXOTfn8WfkA8P_un-28" style="edgeStyle=orthogonalEdgeStyle;rounded=0;orthogonalLoop=1;jettySize=auto;html=1;entryX=0.5;entryY=0;entryDx=0;entryDy=0;curved=1;dashed=1;dashPattern=8 8;" edge="1" parent="1" source="1Kr1dXOTfn8WfkA8P_un-13" target="1Kr1dXOTfn8WfkA8P_un-7">
          <mxGeometry relative="1" as="geometry" />
        </mxCell>
        <mxCell id="1Kr1dXOTfn8WfkA8P_un-31" value="&amp;lt;Include&amp;gt;" style="edgeLabel;html=1;align=center;verticalAlign=middle;resizable=0;points=[];" vertex="1" connectable="0" parent="1Kr1dXOTfn8WfkA8P_un-28">
          <mxGeometry x="-0.4102" y="-11" relative="1" as="geometry">
            <mxPoint as="offset" />
          </mxGeometry>
        </mxCell>
        <mxCell id="1Kr1dXOTfn8WfkA8P_un-13" value="Visualizar atividades" style="ellipse;whiteSpace=wrap;html=1;" vertex="1" parent="1">
          <mxGeometry x="355" y="10" width="120" height="80" as="geometry" />
        </mxCell>
        <mxCell id="1Kr1dXOTfn8WfkA8P_un-29" style="edgeStyle=orthogonalEdgeStyle;rounded=0;orthogonalLoop=1;jettySize=auto;html=1;entryX=0.5;entryY=0;entryDx=0;entryDy=0;curved=1;dashed=1;dashPattern=8 8;" edge="1" parent="1" source="1Kr1dXOTfn8WfkA8P_un-14" target="1Kr1dXOTfn8WfkA8P_un-7">
          <mxGeometry relative="1" as="geometry" />
        </mxCell>
        <mxCell id="1Kr1dXOTfn8WfkA8P_un-32" value="&amp;lt;Include&amp;gt;" style="edgeLabel;html=1;align=center;verticalAlign=middle;resizable=0;points=[];" vertex="1" connectable="0" parent="1Kr1dXOTfn8WfkA8P_un-29">
          <mxGeometry x="-0.3286" y="-3" relative="1" as="geometry">
            <mxPoint as="offset" />
          </mxGeometry>
        </mxCell>
        <mxCell id="1Kr1dXOTfn8WfkA8P_un-14" value="Registrar turmas" style="ellipse;whiteSpace=wrap;html=1;" vertex="1" parent="1">
          <mxGeometry x="355" y="120" width="120" height="80" as="geometry" />
        </mxCell>
        <mxCell id="1Kr1dXOTfn8WfkA8P_un-26" style="edgeStyle=orthogonalEdgeStyle;rounded=0;orthogonalLoop=1;jettySize=auto;html=1;entryX=0.5;entryY=1;entryDx=0;entryDy=0;curved=1;dashed=1;dashPattern=8 8;" edge="1" parent="1" source="1Kr1dXOTfn8WfkA8P_un-15" target="1Kr1dXOTfn8WfkA8P_un-7">
          <mxGeometry relative="1" as="geometry" />
        </mxCell>
        <mxCell id="1Kr1dXOTfn8WfkA8P_un-35" value="&amp;lt;Include&amp;gt;" style="edgeLabel;html=1;align=center;verticalAlign=middle;resizable=0;points=[];" vertex="1" connectable="0" parent="1Kr1dXOTfn8WfkA8P_un-26">
          <mxGeometry x="0.1088" y="56" relative="1" as="geometry">
            <mxPoint as="offset" />
          </mxGeometry>
        </mxCell>
        <mxCell id="1Kr1dXOTfn8WfkA8P_un-15" value="Visualizar turmas" style="ellipse;whiteSpace=wrap;html=1;" vertex="1" parent="1">
          <mxGeometry x="355" y="540" width="120" height="80" as="geometry" />
        </mxCell>
        <mxCell id="1Kr1dXOTfn8WfkA8P_un-36" style="edgeStyle=orthogonalEdgeStyle;rounded=0;orthogonalLoop=1;jettySize=auto;html=1;entryX=0.507;entryY=-0.029;entryDx=0;entryDy=0;entryPerimeter=0;dashed=1;dashPattern=8 8;endArrow=block;endFill=0;" edge="1" parent="1" source="1Kr1dXOTfn8WfkA8P_un-12" target="1Kr1dXOTfn8WfkA8P_un-15">
          <mxGeometry relative="1" as="geometry" />
        </mxCell>
        <mxCell id="1Kr1dXOTfn8WfkA8P_un-37" value="&amp;lt;extend&amp;gt;" style="edgeLabel;html=1;align=center;verticalAlign=middle;resizable=0;points=[];" vertex="1" connectable="0" parent="1Kr1dXOTfn8WfkA8P_un-36">
          <mxGeometry x="-0.2085" relative="1" as="geometry">
            <mxPoint as="offset" />
          </mxGeometry>
        </mxCell>
        <mxCell id="1Kr1dXOTfn8WfkA8P_un-38" value="Professor" style="shape=table;startSize=30;container=1;collapsible=1;childLayout=tableLayout;fixedRows=1;rowLines=0;fontStyle=1;align=center;resizeLast=1;html=1;" vertex="1" parent="1">
          <mxGeometry x="1140" y="10" width="180" height="150" as="geometry" />
        </mxCell>
        <mxCell id="1Kr1dXOTfn8WfkA8P_un-39" value="" style="shape=tableRow;horizontal=0;startSize=0;swimlaneHead=0;swimlaneBody=0;fillColor=none;collapsible=0;dropTarget=0;points=[[0,0.5],[1,0.5]];portConstraint=eastwest;top=0;left=0;right=0;bottom=1;" vertex="1" parent="1Kr1dXOTfn8WfkA8P_un-38">
          <mxGeometry y="30" width="180" height="30" as="geometry" />
        </mxCell>
        <mxCell id="1Kr1dXOTfn8WfkA8P_un-40" value="PK" style="shape=partialRectangle;connectable=0;fillColor=none;top=0;left=0;bottom=0;right=0;fontStyle=1;overflow=hidden;whiteSpace=wrap;html=1;" vertex="1" parent="1Kr1dXOTfn8WfkA8P_un-39">
          <mxGeometry width="30" height="30" as="geometry">
            <mxRectangle width="30" height="30" as="alternateBounds" />
          </mxGeometry>
        </mxCell>
        <mxCell id="1Kr1dXOTfn8WfkA8P_un-41" value="&lt;span style=&quot;text-align: center; text-wrap: nowrap;&quot;&gt;professorId: INT&lt;/span&gt;" style="shape=partialRectangle;connectable=0;fillColor=none;top=0;left=0;bottom=0;right=0;align=left;spacingLeft=6;fontStyle=5;overflow=hidden;whiteSpace=wrap;html=1;" vertex="1" parent="1Kr1dXOTfn8WfkA8P_un-39">
          <mxGeometry x="30" width="150" height="30" as="geometry">
            <mxRectangle width="150" height="30" as="alternateBounds" />
          </mxGeometry>
        </mxCell>
        <mxCell id="1Kr1dXOTfn8WfkA8P_un-42" value="" style="shape=tableRow;horizontal=0;startSize=0;swimlaneHead=0;swimlaneBody=0;fillColor=none;collapsible=0;dropTarget=0;points=[[0,0.5],[1,0.5]];portConstraint=eastwest;top=0;left=0;right=0;bottom=0;" vertex="1" parent="1Kr1dXOTfn8WfkA8P_un-38">
          <mxGeometry y="60" width="180" height="30" as="geometry" />
        </mxCell>
        <mxCell id="1Kr1dXOTfn8WfkA8P_un-43" value="" style="shape=partialRectangle;connectable=0;fillColor=none;top=0;left=0;bottom=0;right=0;editable=1;overflow=hidden;whiteSpace=wrap;html=1;" vertex="1" parent="1Kr1dXOTfn8WfkA8P_un-42">
          <mxGeometry width="30" height="30" as="geometry">
            <mxRectangle width="30" height="30" as="alternateBounds" />
          </mxGeometry>
        </mxCell>
        <mxCell id="1Kr1dXOTfn8WfkA8P_un-44" value="nome: VARCHAR(255)" style="shape=partialRectangle;connectable=0;fillColor=none;top=0;left=0;bottom=0;right=0;align=left;spacingLeft=6;overflow=hidden;whiteSpace=wrap;html=1;" vertex="1" parent="1Kr1dXOTfn8WfkA8P_un-42">
          <mxGeometry x="30" width="150" height="30" as="geometry">
            <mxRectangle width="150" height="30" as="alternateBounds" />
          </mxGeometry>
        </mxCell>
        <mxCell id="1Kr1dXOTfn8WfkA8P_un-45" value="" style="shape=tableRow;horizontal=0;startSize=0;swimlaneHead=0;swimlaneBody=0;fillColor=none;collapsible=0;dropTarget=0;points=[[0,0.5],[1,0.5]];portConstraint=eastwest;top=0;left=0;right=0;bottom=0;" vertex="1" parent="1Kr1dXOTfn8WfkA8P_un-38">
          <mxGeometry y="90" width="180" height="30" as="geometry" />
        </mxCell>
        <mxCell id="1Kr1dXOTfn8WfkA8P_un-46" value="" style="shape=partialRectangle;connectable=0;fillColor=none;top=0;left=0;bottom=0;right=0;editable=1;overflow=hidden;whiteSpace=wrap;html=1;" vertex="1" parent="1Kr1dXOTfn8WfkA8P_un-45">
          <mxGeometry width="30" height="30" as="geometry">
            <mxRectangle width="30" height="30" as="alternateBounds" />
          </mxGeometry>
        </mxCell>
        <mxCell id="1Kr1dXOTfn8WfkA8P_un-47" value="email: VARCHAR(255)" style="shape=partialRectangle;connectable=0;fillColor=none;top=0;left=0;bottom=0;right=0;align=left;spacingLeft=6;overflow=hidden;whiteSpace=wrap;html=1;" vertex="1" parent="1Kr1dXOTfn8WfkA8P_un-45">
          <mxGeometry x="30" width="150" height="30" as="geometry">
            <mxRectangle width="150" height="30" as="alternateBounds" />
          </mxGeometry>
        </mxCell>
        <mxCell id="1Kr1dXOTfn8WfkA8P_un-48" value="" style="shape=tableRow;horizontal=0;startSize=0;swimlaneHead=0;swimlaneBody=0;fillColor=none;collapsible=0;dropTarget=0;points=[[0,0.5],[1,0.5]];portConstraint=eastwest;top=0;left=0;right=0;bottom=0;" vertex="1" parent="1Kr1dXOTfn8WfkA8P_un-38">
          <mxGeometry y="120" width="180" height="30" as="geometry" />
        </mxCell>
        <mxCell id="1Kr1dXOTfn8WfkA8P_un-49" value="" style="shape=partialRectangle;connectable=0;fillColor=none;top=0;left=0;bottom=0;right=0;editable=1;overflow=hidden;whiteSpace=wrap;html=1;" vertex="1" parent="1Kr1dXOTfn8WfkA8P_un-48">
          <mxGeometry width="30" height="30" as="geometry">
            <mxRectangle width="30" height="30" as="alternateBounds" />
          </mxGeometry>
        </mxCell>
        <mxCell id="1Kr1dXOTfn8WfkA8P_un-50" value="senha: VARCHAR(255)" style="shape=partialRectangle;connectable=0;fillColor=none;top=0;left=0;bottom=0;right=0;align=left;spacingLeft=6;overflow=hidden;whiteSpace=wrap;html=1;" vertex="1" parent="1Kr1dXOTfn8WfkA8P_un-48">
          <mxGeometry x="30" width="150" height="30" as="geometry">
            <mxRectangle width="150" height="30" as="alternateBounds" />
          </mxGeometry>
        </mxCell>
        <mxCell id="1Kr1dXOTfn8WfkA8P_un-64" value="&lt;span style=&quot;text-wrap: nowrap;&quot;&gt;Turma&lt;/span&gt;" style="shape=table;startSize=30;container=1;collapsible=1;childLayout=tableLayout;fixedRows=1;rowLines=0;fontStyle=1;align=center;resizeLast=1;html=1;whiteSpace=wrap;" vertex="1" parent="1">
          <mxGeometry x="1440" y="10" width="220" height="120" as="geometry" />
        </mxCell>
        <mxCell id="1Kr1dXOTfn8WfkA8P_un-65" value="" style="shape=tableRow;horizontal=0;startSize=0;swimlaneHead=0;swimlaneBody=0;fillColor=none;collapsible=0;dropTarget=0;points=[[0,0.5],[1,0.5]];portConstraint=eastwest;top=0;left=0;right=0;bottom=0;html=1;" vertex="1" parent="1Kr1dXOTfn8WfkA8P_un-64">
          <mxGeometry y="30" width="220" height="30" as="geometry" />
        </mxCell>
        <mxCell id="1Kr1dXOTfn8WfkA8P_un-66" value="PK" style="shape=partialRectangle;connectable=0;fillColor=none;top=0;left=0;bottom=0;right=0;fontStyle=1;overflow=hidden;html=1;whiteSpace=wrap;" vertex="1" parent="1Kr1dXOTfn8WfkA8P_un-65">
          <mxGeometry width="60" height="30" as="geometry">
            <mxRectangle width="60" height="30" as="alternateBounds" />
          </mxGeometry>
        </mxCell>
        <mxCell id="1Kr1dXOTfn8WfkA8P_un-67" value="&lt;span style=&quot;text-wrap: nowrap; text-align: center;&quot;&gt;turma&lt;/span&gt;&lt;span style=&quot;text-wrap: nowrap; text-align: center;&quot;&gt;Id: INT&lt;/span&gt;" style="shape=partialRectangle;connectable=0;fillColor=none;top=0;left=0;bottom=0;right=0;align=left;spacingLeft=6;fontStyle=5;overflow=hidden;html=1;whiteSpace=wrap;" vertex="1" parent="1Kr1dXOTfn8WfkA8P_un-65">
          <mxGeometry x="60" width="160" height="30" as="geometry">
            <mxRectangle width="160" height="30" as="alternateBounds" />
          </mxGeometry>
        </mxCell>
        <mxCell id="1Kr1dXOTfn8WfkA8P_un-68" value="" style="shape=tableRow;horizontal=0;startSize=0;swimlaneHead=0;swimlaneBody=0;fillColor=none;collapsible=0;dropTarget=0;points=[[0,0.5],[1,0.5]];portConstraint=eastwest;top=0;left=0;right=0;bottom=1;html=1;" vertex="1" parent="1Kr1dXOTfn8WfkA8P_un-64">
          <mxGeometry y="60" width="220" height="30" as="geometry" />
        </mxCell>
        <mxCell id="1Kr1dXOTfn8WfkA8P_un-69" value="FK" style="shape=partialRectangle;connectable=0;fillColor=none;top=0;left=0;bottom=0;right=0;fontStyle=1;overflow=hidden;html=1;whiteSpace=wrap;" vertex="1" parent="1Kr1dXOTfn8WfkA8P_un-68">
          <mxGeometry width="60" height="30" as="geometry">
            <mxRectangle width="60" height="30" as="alternateBounds" />
          </mxGeometry>
        </mxCell>
        <mxCell id="1Kr1dXOTfn8WfkA8P_un-70" value="&lt;span style=&quot;text-align: center; text-wrap: nowrap;&quot;&gt;professorId: INT&lt;/span&gt;" style="shape=partialRectangle;connectable=0;fillColor=none;top=0;left=0;bottom=0;right=0;align=left;spacingLeft=6;fontStyle=5;overflow=hidden;html=1;whiteSpace=wrap;" vertex="1" parent="1Kr1dXOTfn8WfkA8P_un-68">
          <mxGeometry x="60" width="160" height="30" as="geometry">
            <mxRectangle width="160" height="30" as="alternateBounds" />
          </mxGeometry>
        </mxCell>
        <mxCell id="1Kr1dXOTfn8WfkA8P_un-71" value="" style="shape=tableRow;horizontal=0;startSize=0;swimlaneHead=0;swimlaneBody=0;fillColor=none;collapsible=0;dropTarget=0;points=[[0,0.5],[1,0.5]];portConstraint=eastwest;top=0;left=0;right=0;bottom=0;html=1;" vertex="1" parent="1Kr1dXOTfn8WfkA8P_un-64">
          <mxGeometry y="90" width="220" height="30" as="geometry" />
        </mxCell>
        <mxCell id="1Kr1dXOTfn8WfkA8P_un-72" value="" style="shape=partialRectangle;connectable=0;fillColor=none;top=0;left=0;bottom=0;right=0;editable=1;overflow=hidden;html=1;whiteSpace=wrap;" vertex="1" parent="1Kr1dXOTfn8WfkA8P_un-71">
          <mxGeometry width="60" height="30" as="geometry">
            <mxRectangle width="60" height="30" as="alternateBounds" />
          </mxGeometry>
        </mxCell>
        <mxCell id="1Kr1dXOTfn8WfkA8P_un-73" value="nome: VARCHAR(255)" style="shape=partialRectangle;connectable=0;fillColor=none;top=0;left=0;bottom=0;right=0;align=left;spacingLeft=6;overflow=hidden;html=1;whiteSpace=wrap;" vertex="1" parent="1Kr1dXOTfn8WfkA8P_un-71">
          <mxGeometry x="60" width="160" height="30" as="geometry">
            <mxRectangle width="160" height="30" as="alternateBounds" />
          </mxGeometry>
        </mxCell>
        <mxCell id="1Kr1dXOTfn8WfkA8P_un-77" value="" style="edgeStyle=entityRelationEdgeStyle;fontSize=12;html=1;endArrow=ERoneToMany;rounded=0;exitX=1;exitY=0.5;exitDx=0;exitDy=0;entryX=0;entryY=0.5;entryDx=0;entryDy=0;" edge="1" parent="1" source="1Kr1dXOTfn8WfkA8P_un-39" target="1Kr1dXOTfn8WfkA8P_un-68">
          <mxGeometry width="100" height="100" relative="1" as="geometry">
            <mxPoint x="1360" y="290" as="sourcePoint" />
            <mxPoint x="1460" y="190" as="targetPoint" />
          </mxGeometry>
        </mxCell>
        <mxCell id="1Kr1dXOTfn8WfkA8P_un-78" value="&lt;span style=&quot;text-wrap: nowrap;&quot;&gt;Atividade&lt;/span&gt;" style="shape=table;startSize=30;container=1;collapsible=1;childLayout=tableLayout;fixedRows=1;rowLines=0;fontStyle=1;align=center;resizeLast=1;html=1;whiteSpace=wrap;" vertex="1" parent="1">
          <mxGeometry x="1810" width="240" height="120" as="geometry" />
        </mxCell>
        <mxCell id="1Kr1dXOTfn8WfkA8P_un-79" value="" style="shape=tableRow;horizontal=0;startSize=0;swimlaneHead=0;swimlaneBody=0;fillColor=none;collapsible=0;dropTarget=0;points=[[0,0.5],[1,0.5]];portConstraint=eastwest;top=0;left=0;right=0;bottom=0;html=1;" vertex="1" parent="1Kr1dXOTfn8WfkA8P_un-78">
          <mxGeometry y="30" width="240" height="30" as="geometry" />
        </mxCell>
        <mxCell id="1Kr1dXOTfn8WfkA8P_un-80" value="PK" style="shape=partialRectangle;connectable=0;fillColor=none;top=0;left=0;bottom=0;right=0;fontStyle=1;overflow=hidden;html=1;whiteSpace=wrap;" vertex="1" parent="1Kr1dXOTfn8WfkA8P_un-79">
          <mxGeometry width="60" height="30" as="geometry">
            <mxRectangle width="60" height="30" as="alternateBounds" />
          </mxGeometry>
        </mxCell>
        <mxCell id="1Kr1dXOTfn8WfkA8P_un-81" value="&lt;span style=&quot;text-align: center; text-wrap: nowrap;&quot;&gt;atividade&lt;/span&gt;&lt;span style=&quot;text-wrap: nowrap; text-align: center;&quot;&gt;Id: INT&lt;/span&gt;" style="shape=partialRectangle;connectable=0;fillColor=none;top=0;left=0;bottom=0;right=0;align=left;spacingLeft=6;fontStyle=5;overflow=hidden;html=1;whiteSpace=wrap;" vertex="1" parent="1Kr1dXOTfn8WfkA8P_un-79">
          <mxGeometry x="60" width="180" height="30" as="geometry">
            <mxRectangle width="180" height="30" as="alternateBounds" />
          </mxGeometry>
        </mxCell>
        <mxCell id="1Kr1dXOTfn8WfkA8P_un-82" value="" style="shape=tableRow;horizontal=0;startSize=0;swimlaneHead=0;swimlaneBody=0;fillColor=none;collapsible=0;dropTarget=0;points=[[0,0.5],[1,0.5]];portConstraint=eastwest;top=0;left=0;right=0;bottom=1;html=1;" vertex="1" parent="1Kr1dXOTfn8WfkA8P_un-78">
          <mxGeometry y="60" width="240" height="30" as="geometry" />
        </mxCell>
        <mxCell id="1Kr1dXOTfn8WfkA8P_un-83" value="FK" style="shape=partialRectangle;connectable=0;fillColor=none;top=0;left=0;bottom=0;right=0;fontStyle=1;overflow=hidden;html=1;whiteSpace=wrap;" vertex="1" parent="1Kr1dXOTfn8WfkA8P_un-82">
          <mxGeometry width="60" height="30" as="geometry">
            <mxRectangle width="60" height="30" as="alternateBounds" />
          </mxGeometry>
        </mxCell>
        <mxCell id="1Kr1dXOTfn8WfkA8P_un-84" value="&lt;span style=&quot;text-wrap: nowrap; text-align: center;&quot;&gt;turma&lt;/span&gt;&lt;span style=&quot;text-wrap: nowrap; text-align: center;&quot;&gt;Id: INT&lt;/span&gt;" style="shape=partialRectangle;connectable=0;fillColor=none;top=0;left=0;bottom=0;right=0;align=left;spacingLeft=6;fontStyle=5;overflow=hidden;html=1;whiteSpace=wrap;" vertex="1" parent="1Kr1dXOTfn8WfkA8P_un-82">
          <mxGeometry x="60" width="180" height="30" as="geometry">
            <mxRectangle width="180" height="30" as="alternateBounds" />
          </mxGeometry>
        </mxCell>
        <mxCell id="1Kr1dXOTfn8WfkA8P_un-85" value="" style="shape=tableRow;horizontal=0;startSize=0;swimlaneHead=0;swimlaneBody=0;fillColor=none;collapsible=0;dropTarget=0;points=[[0,0.5],[1,0.5]];portConstraint=eastwest;top=0;left=0;right=0;bottom=0;html=1;" vertex="1" parent="1Kr1dXOTfn8WfkA8P_un-78">
          <mxGeometry y="90" width="240" height="30" as="geometry" />
        </mxCell>
        <mxCell id="1Kr1dXOTfn8WfkA8P_un-86" value="" style="shape=partialRectangle;connectable=0;fillColor=none;top=0;left=0;bottom=0;right=0;editable=1;overflow=hidden;html=1;whiteSpace=wrap;" vertex="1" parent="1Kr1dXOTfn8WfkA8P_un-85">
          <mxGeometry width="60" height="30" as="geometry">
            <mxRectangle width="60" height="30" as="alternateBounds" />
          </mxGeometry>
        </mxCell>
        <mxCell id="1Kr1dXOTfn8WfkA8P_un-87" value="descricao: VARCHAR(255)" style="shape=partialRectangle;connectable=0;fillColor=none;top=0;left=0;bottom=0;right=0;align=left;spacingLeft=6;overflow=hidden;html=1;whiteSpace=wrap;" vertex="1" parent="1Kr1dXOTfn8WfkA8P_un-85">
          <mxGeometry x="60" width="180" height="30" as="geometry">
            <mxRectangle width="180" height="30" as="alternateBounds" />
          </mxGeometry>
        </mxCell>
        <mxCell id="1Kr1dXOTfn8WfkA8P_un-91" value="" style="edgeStyle=entityRelationEdgeStyle;fontSize=12;html=1;endArrow=ERoneToMany;rounded=0;exitX=1;exitY=0.5;exitDx=0;exitDy=0;entryX=0;entryY=0.5;entryDx=0;entryDy=0;" edge="1" parent="1" source="1Kr1dXOTfn8WfkA8P_un-65" target="1Kr1dXOTfn8WfkA8P_un-82">
          <mxGeometry width="100" height="100" relative="1" as="geometry">
            <mxPoint x="1720" y="190" as="sourcePoint" />
            <mxPoint x="1840" y="220" as="targetPoint" />
          </mxGeometry>
        </mxCell>
        <mxCell id="1Kr1dXOTfn8WfkA8P_un-92" value="" style="shape=tape;whiteSpace=wrap;html=1;" vertex="1" parent="1">
          <mxGeometry x="2240" y="500" width="120" height="100" as="geometry" />
        </mxCell>
      </root>
    </mxGraphModel>
  </diagram>
</mxfile>
